<svg id="Layer_1" data-name="Layer 1" xmlns="http://www.w3.org/2000/svg" viewBox="0 0 5000 5000"><defs><style>.cls-1{fill:#fff;opacity:0.51;}</style></defs><title>expand-triangle</title><path class="cls-1" d="M0,5000H5000V0ZM4469,3656.1543a176.43106,176.43106,0,0,1-176.43115,176.43115H3833.87744v460.9834A176.43106,176.43106,0,0,1,3657.44629,4470h-.00049a176.431,176.431,0,0,1-176.43091-176.43115v-460.9834l-458.58374.00024A176.43085,176.43085,0,0,1,2846,3656.15479v-.00049a176.431,176.431,0,0,1,176.43091-176.43091l458.584-.00025v-456.292A176.431,176.431,0,0,1,3657.4458,2847h.00049a176.43106,176.43106,0,0,1,176.43115,176.43115v456.292l458.69141-.00024A176.431,176.431,0,0,1,4469,3656.15381Z"/></svg>